# xmcd CD database file
#
# Track frame offsets:
#	150
#	25803
#	55378
#	82220
#	102328
#	130891
#	152547
#	170880
#	198914
#	231495
#	254306
#
# Disc length: 3702 seconds
#
# Revision: 1
# Processed by: cddbd v1.5.2PL0 Copyright (c) Steve Scherf et al.
# Submitted via: CDex 1.51
#
DISCID=980e740b
DTITLE=David Arnay - Blues... And Then Some
DYEAR=2003
DGENRE=Jazz
TTITLE0=Three Down Blues
TTITLE1=New 3
TTITLE2=Isfahan
TTITLE3=Bop-ish Blues
TTITLE4=Kumbengo
TTITLE5=In A Sentimental Mood
TTITLE6=Meteorology
TTITLE7=Hal's Blues
TTITLE8=Dr. Abdullah
TTITLE9=Have You Met Miss Jones?
TTITLE10=In The Tall Grass
EXTD=YEAR: 2003
EXTT0=
EXTT1=
EXTT2=
EXTT3=
EXTT4=
EXTT5=
EXTT6=
EXTT7=
EXTT8=
EXTT9=
EXTT10=
PLAYORDER=
